<svg version="1.1" id="Layer_1" xmlns="http://www.w3.org/2000/svg" xmlns:xlink="http://www.w3.org/1999/xlink" x="0px" y="0px"
	 width="100%" viewBox="0 0 512 512" enable-background="new 0 0 512 512" xml:space="preserve">
<path fill="#000000" opacity="1.000000" stroke="none" 
	d="
M513.000000,198.000000 
	C513.000000,303.307739 513.000000,408.115479 513.000000,512.961609 
	C342.400574,512.961609 171.801163,512.961609 1.100867,512.961609 
	C1.100867,342.442291 1.100867,171.884491 1.100867,1.163351 
	C171.666534,1.163351 342.333252,1.163351 513.000000,1.163351 
	C513.000000,66.532135 513.000000,132.016068 513.000000,198.000000 
M233.485291,249.989624 
	C232.017319,248.995377 230.656052,247.765976 229.064575,247.043961 
	C216.068726,241.148087 202.993774,235.425018 190.043045,229.432892 
	C188.096069,228.532043 185.401596,226.613083 185.266571,224.981857 
	C184.991455,221.657852 183.509201,217.974854 188.117859,215.110397 
	C202.305130,206.292511 210.997482,193.139496 215.503815,177.190598 
	C230.344345,176.424866 240.165482,167.774231 241.156967,156.354294 
	C242.569885,140.080032 231.708466,128.855240 218.612778,128.695908 
	C222.031479,125.415298 227.088699,122.198486 229.836838,117.601318 
	C236.576645,106.326874 234.153687,90.490639 219.978043,82.892906 
	C218.633560,82.172295 217.444870,80.345528 217.041641,78.807434 
	C211.635559,58.186592 200.253067,42.919090 179.448318,35.681255 
	C178.259018,35.267506 177.179962,32.786594 177.104141,31.216814 
	C176.716965,23.201576 170.666107,17.026665 162.740112,17.004049 
	C155.907394,16.984554 149.073654,16.929995 142.242050,17.020037 
	C135.622589,17.107283 128.996445,23.608217 129.082779,30.239017 
	C129.127274,33.658405 128.182465,34.891670 124.728661,36.300186 
	C107.564850,43.299873 95.582291,55.325016 90.587173,73.706810 
	C89.591675,77.370171 89.550201,81.208145 84.978508,83.874428 
	C72.317947,91.258255 70.983124,101.069107 74.135719,113.759140 
	C75.970268,121.143707 82.348701,124.993423 88.846268,128.580811 
	C74.477409,130.195724 65.781898,138.919769 64.823364,150.259430 
	C63.538769,165.456436 74.206940,178.196396 90.798073,177.385849 
	C90.961205,178.516449 90.926102,179.721237 91.317360,180.766449 
	C96.743851,195.262802 105.325554,207.319595 118.492020,215.845459 
	C122.581192,218.493378 122.149216,226.602112 117.771385,228.627823 
	C107.438210,233.409149 97.321297,238.867279 86.604141,242.565765 
	C64.340843,250.248856 46.750931,273.808533 48.897026,298.188019 
	C49.559532,305.714081 49.000000,313.347687 49.000000,320.644470 
	C43.215385,320.644470 38.136539,320.644470 33.000053,320.644470 
	C33.000053,260.297485 32.974361,200.305893 33.071907,140.314529 
	C33.077072,137.138397 33.808678,133.867432 34.744053,130.806198 
	C38.046070,119.999588 45.678532,114.478783 56.722630,113.655060 
	C56.722630,108.024246 56.722630,102.605339 56.722630,97.228577 
	C37.009605,94.655983 16.784649,114.861473 16.868229,134.510742 
	C17.192181,210.669846 16.987587,286.831146 17.042866,362.991608 
	C17.045212,366.225128 17.221096,369.586121 18.089613,372.669891 
	C22.408474,388.004486 37.456047,401.011444 54.012066,401.004272 
	C87.176033,400.989899 120.340012,401.000000 153.503983,401.000000 
	C155.282181,401.000000 157.060379,401.000000 159.116394,401.000000 
	C158.695297,406.121979 158.473495,410.699066 157.914398,415.234558 
	C156.700989,425.078186 155.111984,434.880066 154.116638,444.743408 
	C153.793823,447.942474 152.981384,449.143860 149.719604,449.068237 
	C145.785706,448.977051 141.714523,448.841492 137.924255,449.701385 
	C128.675964,451.799408 120.017052,461.382751 120.734322,475.403320 
	C121.255737,485.595581 132.331863,497.144989 142.502121,497.104279 
	C197.496780,496.884216 252.492783,497.001190 307.488312,496.993103 
	C308.814758,496.992920 310.232849,497.177246 311.453033,496.788452 
	C320.801605,493.809662 330.458771,485.914185 329.114410,469.890564 
	C328.377808,461.110992 320.605621,451.076843 311.253265,449.220093 
	C307.723022,448.519196 303.942108,448.866364 300.291412,449.050964 
	C297.035645,449.215546 296.205841,447.962860 295.882996,444.753418 
	C294.890747,434.889587 293.295319,425.088074 292.093323,415.242950 
	C291.527802,410.610779 291.326050,405.934143 290.937592,401.000000 
	C293.192352,401.000000 294.839172,401.000000 296.485992,401.000000 
	C328.150085,401.000000 359.815430,400.842804 391.477539,401.093597 
	C401.261932,401.171143 410.035492,399.289734 417.807251,393.057739 
	C426.862793,385.796295 432.853790,376.785065 432.917847,365.012726 
	C433.133667,325.350464 433.000000,285.686310 433.000000,246.022858 
	C433.000000,244.422714 433.000000,242.822571 433.000000,241.284470 
	C427.362030,241.284470 422.289673,241.284470 416.825745,241.284470 
	C416.825745,267.972961 416.825745,294.379211 416.825745,320.713531 
	C363.357269,320.713531 310.288300,320.713531 255.999481,320.713531 
	C255.999481,308.043610 257.275574,295.490417 255.662079,283.320374 
	C253.829132,269.495209 245.483658,258.649048 233.485291,249.989624 
M281.837524,120.001472 
	C273.000061,122.851707 273.000031,122.851707 273.000000,131.734406 
	C272.999969,141.564758 273.085724,151.396194 272.959412,161.224930 
	C272.906036,165.381088 274.352570,168.179581 278.609406,168.982986 
	C282.570953,169.730637 286.537750,170.565079 290.541748,170.946121 
	C296.658081,171.528152 302.801941,171.591339 303.575531,179.987366 
	C303.738220,181.753342 305.211823,183.398529 306.066162,185.069626 
	C302.028320,190.322372 297.950928,195.386810 294.144257,200.647156 
	C290.461243,205.736710 291.024017,210.515305 295.522552,215.034729 
	C301.986328,221.528473 308.465454,228.007019 314.959259,234.470764 
	C319.486816,238.977386 324.251465,239.542892 329.344696,235.859634 
	C334.606750,232.054291 339.672455,227.977554 344.588593,224.200455 
	C348.194641,225.516296 351.685455,226.655441 355.049255,228.092026 
	C356.195496,228.581543 357.713745,229.707291 357.879883,230.733719 
	C358.789825,236.354233 359.021210,242.093323 360.082672,247.678238 
	C361.296967,254.067307 362.117798,256.897339 367.766266,256.961029 
	C379.261292,257.090637 390.759064,256.962067 402.255219,257.022949 
	C405.673950,257.041016 408.019745,255.389023 408.790619,252.319733 
	C409.849121,248.105103 410.516968,243.758270 410.946136,239.427826 
	C411.551727,233.316803 411.655823,227.195328 420.008942,226.405334 
	C421.779846,226.237854 423.429352,224.786880 425.072662,223.958588 
	C427.757172,226.025024 430.331146,228.012390 432.911774,229.991119 
	C435.487640,231.966217 438.003296,234.028641 440.664093,235.882309 
	C445.798859,239.459503 450.533630,238.955582 455.055023,234.455078 
	C461.548767,227.991333 468.029266,221.514145 474.493134,215.020447 
	C478.972443,210.520477 479.528076,205.706024 475.847046,200.627731 
	C472.036957,195.371460 467.960480,190.308304 464.197510,185.416687 
	C465.522766,181.776794 466.656799,178.283951 468.095215,174.921341 
	C468.583466,173.779968 469.726990,172.290634 470.764191,172.117508 
	C476.216766,171.207458 481.758789,170.839066 487.217651,169.959381 
	C495.191559,168.674423 497.285675,167.042236 497.074982,159.702560 
	C496.778656,149.380859 496.926788,139.043549 497.035858,128.714508 
	C497.079712,124.560791 495.624023,121.777275 491.331726,121.007530 
	C487.363098,120.295822 483.400879,119.462242 479.398010,119.047470 
	C473.316071,118.417252 467.104065,118.410423 466.383209,109.968620 
	C466.232147,108.199707 464.781525,106.541771 463.961609,104.896606 
	C468.000366,99.635101 472.077606,94.565323 475.881622,89.298195 
	C479.527008,84.250702 478.936432,79.444946 474.432251,74.925171 
	C468.082092,68.553070 461.706787,62.206005 455.336792,55.853710 
	C450.474701,51.005127 445.379395,50.436489 440.142731,54.372375 
	C435.084045,58.174541 430.158630,62.154064 425.484558,65.813087 
	C421.751160,64.462044 418.208221,63.424206 414.912994,61.863426 
	C413.650726,61.265556 412.335236,59.575577 412.108429,58.206875 
	C411.177734,52.590279 410.807404,46.882736 409.945923,41.252266 
	C408.962189,34.822922 406.649445,33.004223 400.174316,33.001282 
	C389.677521,32.996513 379.180023,33.069271 368.684235,32.965672 
	C364.527100,32.924644 361.747284,34.393448 361.006714,38.698452 
	C360.295319,42.834042 359.630402,46.978424 359.008514,51.128445 
	C358.179932,56.658058 358.750519,62.992039 350.352905,63.384270 
	C348.470459,63.472198 346.662506,65.155052 344.920776,66.051888 
	C339.615143,61.983616 334.541656,57.907784 329.270935,54.105255 
	C324.248199,50.481613 319.422455,51.087811 314.904755,55.590092 
	C308.532715,61.940334 302.184021,68.313995 295.831238,74.683502 
	C291.000671,79.526764 290.448486,84.645111 294.391144,89.880211 
	C298.197021,94.933708 302.169769,99.861534 305.814667,104.519257 
	C304.456329,108.279045 303.297852,111.758141 301.917450,115.146851 
	C301.481628,116.216713 300.560760,117.731255 299.676178,117.871552 
	C294.051727,118.763550 288.375305,119.327835 281.837524,120.001472 
M339.492126,289.000000 
	C322.732361,289.000000 305.972565,289.000000 289.289154,289.000000 
	C289.289154,294.648682 289.289154,299.720428 289.289154,304.713318 
	C310.647980,304.713318 331.716461,304.713318 352.710327,304.713318 
	C352.710327,299.348816 352.710327,294.276917 352.710327,289.000000 
	C348.445618,289.000000 344.467346,289.000000 339.492126,289.000000 
M290.715179,257.003845 
	C290.144653,257.601196 289.097961,258.184204 289.079468,258.798248 
	C288.940247,263.412842 289.003571,268.033569 289.003571,272.781494 
	C310.503357,272.781494 331.574188,272.781494 352.777832,272.781494 
	C352.777832,267.489471 352.777832,262.417908 352.777832,257.000244 
	C332.265594,257.000244 311.973511,257.000244 290.715179,257.003845 
M256.560547,97.000000 
	C254.123123,97.000000 251.685684,97.000000 249.269272,97.000000 
	C249.269272,102.609283 249.269272,107.681122 249.269272,112.730682 
	C262.610443,112.730682 275.680542,112.730682 288.727844,112.730682 
	C288.727844,107.384193 288.727844,102.311913 288.727844,97.000000 
	C278.153076,97.000000 267.848572,97.000000 256.560547,97.000000 
z"/>
<path fill="#FFFFFF" opacity="1.000000" stroke="none" 
	d="
M233.747192,250.248672 
	C245.483658,258.649048 253.829132,269.495209 255.662079,283.320374 
	C257.275574,295.490417 255.999481,308.043610 255.999481,320.713531 
	C310.288300,320.713531 363.357269,320.713531 416.825745,320.713531 
	C416.825745,294.379211 416.825745,267.972961 416.825745,241.284470 
	C422.289673,241.284470 427.362030,241.284470 433.000000,241.284470 
	C433.000000,242.822571 433.000000,244.422714 433.000000,246.022858 
	C433.000000,285.686310 433.133667,325.350464 432.917847,365.012726 
	C432.853790,376.785065 426.862793,385.796295 417.807251,393.057739 
	C410.035492,399.289734 401.261932,401.171143 391.477539,401.093597 
	C359.815430,400.842804 328.150085,401.000000 296.485992,401.000000 
	C294.839172,401.000000 293.192352,401.000000 290.937592,401.000000 
	C291.326050,405.934143 291.527802,410.610779 292.093323,415.242950 
	C293.295319,425.088074 294.890747,434.889587 295.882996,444.753418 
	C296.205841,447.962860 297.035645,449.215546 300.291412,449.050964 
	C303.942108,448.866364 307.723022,448.519196 311.253265,449.220093 
	C320.605621,451.076843 328.377808,461.110992 329.114410,469.890564 
	C330.458771,485.914185 320.801605,493.809662 311.453033,496.788452 
	C310.232849,497.177246 308.814758,496.992920 307.488312,496.993103 
	C252.492783,497.001190 197.496780,496.884216 142.502121,497.104279 
	C132.331863,497.144989 121.255737,485.595581 120.734322,475.403320 
	C120.017052,461.382751 128.675964,451.799408 137.924255,449.701385 
	C141.714523,448.841492 145.785706,448.977051 149.719604,449.068237 
	C152.981384,449.143860 153.793823,447.942474 154.116638,444.743408 
	C155.111984,434.880066 156.700989,425.078186 157.914398,415.234558 
	C158.473495,410.699066 158.695297,406.121979 159.116394,401.000000 
	C157.060379,401.000000 155.282181,401.000000 153.503983,401.000000 
	C120.340012,401.000000 87.176033,400.989899 54.012066,401.004272 
	C37.456047,401.011444 22.408474,388.004486 18.089613,372.669891 
	C17.221096,369.586121 17.045212,366.225128 17.042866,362.991608 
	C16.987587,286.831146 17.192181,210.669846 16.868229,134.510742 
	C16.784649,114.861473 37.009605,94.655983 56.722630,97.228577 
	C56.722630,102.605339 56.722630,108.024246 56.722630,113.655060 
	C45.678532,114.478783 38.046070,119.999588 34.744053,130.806198 
	C33.808678,133.867432 33.077072,137.138397 33.071907,140.314529 
	C32.974361,200.305893 33.000053,260.297485 33.000053,320.644470 
	C38.136539,320.644470 43.215385,320.644470 49.000000,320.644470 
	C49.000000,313.347687 49.559532,305.714081 48.897026,298.188019 
	C46.750931,273.808533 64.340843,250.248856 86.604141,242.565765 
	C97.321297,238.867279 107.438210,233.409149 117.771385,228.627823 
	C122.149216,226.602112 122.581192,218.493378 118.492020,215.845459 
	C105.325554,207.319595 96.743851,195.262802 91.317360,180.766449 
	C90.926102,179.721237 90.961205,178.516449 90.798302,177.385818 
	C74.206940,178.196396 63.538769,165.456436 64.823364,150.259430 
	C65.781898,138.919769 74.477409,130.195724 88.846268,128.580811 
	C82.348701,124.993423 75.970268,121.143707 74.135719,113.759140 
	C70.983124,101.069107 72.317947,91.258255 84.978508,83.874428 
	C89.550201,81.208145 89.591675,77.370171 90.587173,73.706810 
	C95.582291,55.325016 107.564850,43.299873 124.728661,36.300186 
	C128.182465,34.891670 129.127274,33.658405 129.082779,30.239017 
	C128.996445,23.608217 135.622589,17.107283 142.242050,17.020037 
	C149.073654,16.929995 155.907394,16.984554 162.740112,17.004049 
	C170.666107,17.026665 176.716965,23.201576 177.104141,31.216814 
	C177.179962,32.786594 178.259018,35.267506 179.448318,35.681255 
	C200.253067,42.919090 211.635559,58.186592 217.041641,78.807434 
	C217.444870,80.345528 218.633560,82.172295 219.978043,82.892906 
	C234.153687,90.490639 236.576645,106.326874 229.836838,117.601318 
	C227.088699,122.198486 222.031479,125.415298 218.612778,128.695908 
	C231.708466,128.855240 242.569885,140.080032 241.156967,156.354294 
	C240.165482,167.774231 230.344345,176.424866 215.503815,177.190598 
	C210.997482,193.139496 202.305130,206.292511 188.117859,215.110397 
	C183.509201,217.974854 184.991455,221.657852 185.266571,224.981857 
	C185.401596,226.613083 188.096069,228.532043 190.043045,229.432892 
	C202.993774,235.425018 216.068726,241.148087 229.064575,247.043961 
	C230.656052,247.765976 232.017319,248.995377 233.747192,250.248672 
M215.500000,337.000000 
	C154.747314,337.000000 93.994621,337.000000 32.539307,337.000000 
	C33.050537,346.952209 32.482887,356.531982 34.272831,365.648865 
	C36.636765,377.689331 45.789635,384.942291 62.036964,384.955688 
	C167.014236,385.042236 271.991608,385.016602 376.968933,384.957306 
	C383.045532,384.953888 389.137695,384.509766 395.194641,383.961761 
	C405.320984,383.045593 412.704041,377.567200 414.775757,367.833771 
	C416.892578,357.888672 416.897400,347.494110 417.853790,337.000000 
	C349.767029,337.000000 283.133514,337.000000 215.500000,337.000000 
M129.557236,202.036652 
	C137.290878,206.706573 145.720184,207.798553 154.662231,208.164566 
	C172.780411,208.906174 192.723221,192.806488 197.151062,177.329819 
	C198.604034,172.251251 199.751511,166.933304 199.959198,161.682144 
	C200.387070,150.863678 200.087921,140.016449 200.087921,129.291718 
	C168.656387,129.291718 136.931976,129.291718 105.999802,129.291718 
	C105.999802,140.976959 105.756920,152.369751 106.057007,163.748215 
	C106.501694,180.609451 115.174294,192.682816 129.557236,202.036652 
M228.500000,401.000000 
	C212.669800,401.000000 196.837936,401.124023 181.010529,400.913544 
	C177.011093,400.860413 176.063156,402.130096 175.851807,406.028778 
	C175.483276,412.827484 174.138107,419.569183 173.313599,426.348358 
	C172.413986,433.745056 171.640884,441.157166 170.785126,448.808441 
	C207.124878,448.808441 242.873917,448.808441 279.131561,448.808441 
	C278.683197,443.908112 278.376251,439.219299 277.802765,434.563293 
	C276.609924,424.879150 275.043182,415.234375 274.126221,405.526550 
	C273.805298,402.128845 273.016113,400.888428 269.491241,400.932678 
	C256.162659,401.100128 242.830704,401.000000 228.500000,401.000000 
M114.407516,273.000000 
	C107.220879,272.987427 105.713898,271.821320 104.023979,264.850647 
	C103.231819,261.583038 102.511253,258.298035 101.653236,254.563965 
	C97.589989,256.462891 93.919472,258.447693 90.056641,259.932068 
	C79.247345,264.085693 71.948227,271.892883 68.142937,282.448303 
	C63.678967,294.830750 65.027649,307.890533 65.084732,320.999573 
	C83.497398,320.999573 101.437721,321.058197 119.375435,320.869110 
	C120.585114,320.856354 122.102371,319.174683 122.877487,317.903778 
	C123.580986,316.750336 123.411240,315.085938 123.721169,313.667480 
	C127.100983,298.198608 130.499420,282.733826 133.862167,267.407532 
	C127.522095,269.316406 121.405029,271.158173 114.407516,273.000000 
M233.439484,321.000000 
	C235.876450,321.000000 238.313400,321.000000 241.476990,321.000000 
	C240.964737,311.396118 240.290985,302.359650 240.052017,293.311676 
	C239.793289,283.515564 235.542038,275.612610 229.126083,268.661102 
	C222.434128,261.410583 213.233780,258.613098 204.476883,254.812683 
	C203.267380,259.117401 201.943420,263.081665 201.068436,267.142670 
	C200.089828,271.684570 197.237411,273.737640 193.008224,272.903534 
	C186.013733,271.524078 179.140228,269.531128 172.307678,267.819702 
	C172.636475,269.582153 172.982086,271.756165 173.452194,273.902924 
	C176.621017,288.373657 179.844040,302.832642 182.976761,317.311127 
	C183.528534,319.861237 184.521866,321.102966 187.474487,321.072113 
	C202.466919,320.915527 217.461884,321.000000 233.439484,321.000000 
M191.500000,465.000000 
	C177.178757,465.000000 162.857315,464.958008 148.536331,465.017914 
	C141.499130,465.047363 137.732880,468.181458 138.000381,473.527618 
	C138.240768,478.331543 142.124527,480.991302 149.091919,480.993073 
	C199.715866,481.005951 250.339890,481.026001 300.963623,480.921326 
	C303.435181,480.916229 306.314484,480.347656 308.254089,478.978882 
	C310.030823,477.725098 311.740448,475.028198 311.733246,472.973328 
	C311.726044,470.915222 310.015137,468.156250 308.217346,466.994293 
	C306.078400,465.611816 303.052917,465.086578 300.408691,465.078064 
	C264.439423,464.962006 228.469650,465.000000 191.500000,465.000000 
M208.767792,112.756271 
	C213.043839,111.447006 216.638565,109.638573 216.022812,104.131653 
	C215.524933,99.678894 211.635132,97.015045 205.068222,97.009346 
	C178.921219,96.986656 152.774170,97.000000 126.627129,97.000000 
	C117.800423,97.000008 108.972633,96.915161 100.147346,97.027031 
	C93.151283,97.115707 89.504189,100.429794 90.001183,105.918320 
	C90.403496,110.361214 94.400383,112.989174 100.984398,112.991524 
	C136.624268,113.004257 172.264145,112.989731 208.767792,112.756271 
M145.000000,37.622856 
	C145.000000,52.041267 145.000000,66.459679 145.000000,80.666397 
	C150.739105,80.666397 155.814270,80.666397 160.665131,80.666397 
	C160.665131,64.592117 160.665131,48.852890 160.665131,33.000099 
	C156.339951,33.000099 152.333878,33.214157 148.363235,32.931210 
	C145.281754,32.711620 144.607620,34.044575 145.000000,37.622856 
M158.996811,286.586334 
	C158.507935,284.766541 158.019058,282.946777 157.528534,281.120850 
	C154.423370,281.120850 151.463821,281.120850 148.375015,281.120850 
	C145.477768,294.309967 142.600189,307.409546 139.673065,320.734650 
	C148.804764,320.734650 157.357742,320.734650 166.362671,320.734650 
	C163.857391,309.415222 161.428665,298.441681 158.996811,286.586334 
M188.489136,81.000000 
	C191.948242,81.000000 195.407333,81.000000 198.876373,81.000000 
	C198.476807,70.203743 188.019897,57.403664 177.000000,53.637074 
	C177.000000,58.133369 177.000000,62.613403 177.000000,67.093437 
	C177.000000,71.669579 177.000000,76.245728 177.000000,81.000000 
	C180.900223,81.000000 184.200912,81.000000 188.489136,81.000000 
M129.000000,57.865379 
	C129.000000,56.417290 129.000000,54.969200 129.000000,53.440903 
	C117.331802,57.726551 106.261978,72.682884 107.419655,80.789444 
	C114.484749,80.789444 121.557648,80.789444 129.000000,80.789444 
	C129.000000,73.319817 129.000000,66.054420 129.000000,57.865379 
M146.690948,225.000000 
	C143.511337,224.646088 140.331711,224.292160 137.060455,223.928040 
	C137.423752,229.706879 148.352036,234.668015 157.291840,232.814896 
	C161.362701,231.971039 165.079285,229.276016 168.822861,227.181671 
	C169.273315,226.929657 168.884171,225.176895 168.884171,225.000000 
	C161.437103,225.000000 154.544937,225.000000 146.690948,225.000000 
M123.038475,252.449905 
	C127.054527,250.749420 132.722641,251.141724 133.006256,244.581100 
	C128.095383,240.893524 124.168617,244.646942 120.252861,246.547226 
	C119.045235,247.133270 118.261627,249.792572 118.297272,251.481186 
	C118.363274,254.607590 120.858025,252.879044 123.038475,252.449905 
M179.378204,251.041000 
	C181.752533,251.955139 184.126877,252.869293 187.192551,254.049606 
	C187.394974,251.711578 188.355759,249.234741 187.598938,247.512863 
	C186.144516,244.203827 176.588379,242.731689 171.656891,245.594696 
	C174.258057,247.627655 176.415939,249.314178 179.378204,251.041000 
M217.000000,154.393036 
	C217.000000,156.194351 217.000000,157.995667 217.000000,159.955521 
	C221.675278,159.803375 223.880325,157.605835 223.992950,153.316193 
	C224.109650,148.872375 222.079300,146.337860 217.000000,145.986374 
	C217.000000,148.600510 217.000000,151.033768 217.000000,154.393036 
M88.708099,146.222336 
	C83.432785,146.829559 81.650169,148.751068 82.015381,153.637939 
	C82.324860,157.778931 84.466042,159.939560 88.980492,159.818497 
	C88.980492,155.360962 88.980492,151.210526 88.708099,146.222336 
M153.409439,249.000137 
	C149.660553,248.043762 148.357239,251.591980 148.517258,253.325394 
	C148.750061,255.847107 150.979950,258.184448 152.477295,260.809021 
	C159.203186,254.505615 159.338257,252.737045 153.409439,249.000137 
z"/>
<path fill="#FFFFFF" opacity="1.000000" stroke="none" 
	d="
M282.276764,120.000793 
	C288.375305,119.327835 294.051727,118.763550 299.676178,117.871552 
	C300.560760,117.731255 301.481628,116.216713 301.917450,115.146851 
	C303.297852,111.758141 304.456329,108.279045 305.814667,104.519257 
	C302.169769,99.861534 298.197021,94.933708 294.391144,89.880211 
	C290.448486,84.645111 291.000671,79.526764 295.831238,74.683502 
	C302.184021,68.313995 308.532715,61.940334 314.904755,55.590092 
	C319.422455,51.087811 324.248199,50.481613 329.270935,54.105255 
	C334.541656,57.907784 339.615143,61.983616 344.920776,66.051888 
	C346.662506,65.155052 348.470459,63.472198 350.352905,63.384270 
	C358.750519,62.992039 358.179932,56.658058 359.008514,51.128445 
	C359.630402,46.978424 360.295319,42.834042 361.006714,38.698452 
	C361.747284,34.393448 364.527100,32.924644 368.684235,32.965672 
	C379.180023,33.069271 389.677521,32.996513 400.174316,33.001282 
	C406.649445,33.004223 408.962189,34.822922 409.945923,41.252266 
	C410.807404,46.882736 411.177734,52.590279 412.108429,58.206875 
	C412.335236,59.575577 413.650726,61.265556 414.912994,61.863426 
	C418.208221,63.424206 421.751160,64.462044 425.484558,65.813087 
	C430.158630,62.154064 435.084045,58.174541 440.142731,54.372375 
	C445.379395,50.436489 450.474701,51.005127 455.336792,55.853710 
	C461.706787,62.206005 468.082092,68.553070 474.432251,74.925171 
	C478.936432,79.444946 479.527008,84.250702 475.881622,89.298195 
	C472.077606,94.565323 468.000366,99.635101 463.961609,104.896606 
	C464.781525,106.541771 466.232147,108.199707 466.383209,109.968620 
	C467.104065,118.410423 473.316071,118.417252 479.398010,119.047470 
	C483.400879,119.462242 487.363098,120.295822 491.331726,121.007530 
	C495.624023,121.777275 497.079712,124.560791 497.035858,128.714508 
	C496.926788,139.043549 496.778656,149.380859 497.074982,159.702560 
	C497.285675,167.042236 495.191559,168.674423 487.217651,169.959381 
	C481.758789,170.839066 476.216766,171.207458 470.764191,172.117508 
	C469.726990,172.290634 468.583466,173.779968 468.095215,174.921341 
	C466.656799,178.283951 465.522766,181.776794 464.197510,185.416687 
	C467.960480,190.308304 472.036957,195.371460 475.847046,200.627731 
	C479.528076,205.706024 478.972443,210.520477 474.493134,215.020447 
	C468.029266,221.514145 461.548767,227.991333 455.055023,234.455078 
	C450.533630,238.955582 445.798859,239.459503 440.664093,235.882309 
	C438.003296,234.028641 435.487640,231.966217 432.911774,229.991119 
	C430.331146,228.012390 427.757172,226.025024 425.072662,223.958588 
	C423.429352,224.786880 421.779846,226.237854 420.008942,226.405334 
	C411.655823,227.195328 411.551727,233.316803 410.946136,239.427826 
	C410.516968,243.758270 409.849121,248.105103 408.790619,252.319733 
	C408.019745,255.389023 405.673950,257.041016 402.255219,257.022949 
	C390.759064,256.962067 379.261292,257.090637 367.766266,256.961029 
	C362.117798,256.897339 361.296967,254.067307 360.082672,247.678238 
	C359.021210,242.093323 358.789825,236.354233 357.879883,230.733719 
	C357.713745,229.707291 356.195496,228.581543 355.049255,228.092026 
	C351.685455,226.655441 348.194641,225.516296 344.588593,224.200455 
	C339.672455,227.977554 334.606750,232.054291 329.344696,235.859634 
	C324.251465,239.542892 319.486816,238.977386 314.959259,234.470764 
	C308.465454,228.007019 301.986328,221.528473 295.522552,215.034729 
	C291.024017,210.515305 290.461243,205.736710 294.144257,200.647156 
	C297.950928,195.386810 302.028320,190.322372 306.066162,185.069626 
	C305.211823,183.398529 303.738220,181.753342 303.575531,179.987366 
	C302.801941,171.591339 296.658081,171.528152 290.541748,170.946121 
	C286.537750,170.565079 282.570953,169.730637 278.609406,168.982986 
	C274.352570,168.179581 272.906036,165.381088 272.959412,161.224930 
	C273.085724,151.396194 272.999969,141.564758 273.000000,131.734406 
	C273.000031,122.851707 273.000061,122.851707 282.276764,120.000793 
M392.235046,49.002998 
	C386.938965,49.002998 381.642883,49.002998 376.323608,49.002998 
	C375.516937,55.671986 374.898590,61.979141 373.942230,68.234627 
	C373.384369,71.883766 371.312836,74.611511 367.680389,76.003410 
	C361.708130,78.291924 355.455383,80.106262 349.917236,83.191078 
	C345.226624,85.803795 341.597839,84.933815 337.834412,82.278976 
	C333.088867,78.931313 328.497620,75.364937 324.291473,72.229614 
	C320.169373,76.397163 316.228363,80.381599 312.300415,84.352837 
	C315.348419,88.503464 318.553711,92.976746 321.876251,97.361191 
	C324.969238,101.442642 325.783600,105.290138 323.131866,110.269470 
	C320.147125,115.874176 318.792328,122.351318 315.770416,127.929939 
	C314.337494,130.575211 310.932434,133.055496 307.972290,133.781372 
	C301.885834,135.273880 295.497498,135.535400 289.256012,136.300766 
	C289.256012,142.285538 289.256012,148.040405 289.256012,153.741074 
	C295.819153,154.516357 302.239716,154.771759 308.376678,156.224823 
	C311.189636,156.890884 314.429138,159.401688 315.756744,161.965683 
	C318.898193,168.032684 320.792267,174.731705 323.629425,180.975830 
	C325.120972,184.258575 325.535675,187.100708 323.424744,190.097504 
	C319.623749,195.493561 315.815765,200.884659 312.380310,205.753952 
	C316.457214,209.802841 320.433929,213.752243 324.381866,217.673065 
	C328.523315,214.632080 332.997711,211.425064 337.384583,208.102509 
	C341.472565,205.006317 345.314667,204.191681 350.303406,206.867584 
	C355.897705,209.868301 362.363342,211.240509 367.971527,214.221283 
	C370.564514,215.599472 373.088165,218.857635 373.774597,221.712723 
	C375.246643,227.835571 375.504669,234.250305 376.276398,240.683914 
	C382.166321,240.683914 388.050262,240.683914 393.758270,240.683914 
	C394.534973,234.029602 394.750885,227.579620 396.245819,221.441132 
	C396.926056,218.648071 399.664703,215.561111 402.294128,214.199387 
	C408.223328,211.128723 414.786774,209.307434 420.853455,206.467880 
	C424.316925,204.846771 427.179932,204.494659 430.355560,206.793350 
	C435.575287,210.571655 440.902374,214.201645 446.043610,217.795883 
	C449.974640,213.876328 453.942139,209.920395 457.966156,205.908127 
	C454.515930,201.326080 450.851257,196.785095 447.563568,191.985855 
	C445.109497,188.403381 444.197723,184.904510 446.763519,180.324783 
	C449.934265,174.665192 451.580750,168.164551 454.050293,162.094208 
	C455.471344,158.601181 458.266022,156.534470 462.004425,156.023605 
	C468.254822,155.169479 474.524811,154.458603 480.735352,153.693741 
	C480.735352,147.691437 480.735352,141.935867 480.735352,136.261108 
	C474.157776,135.483505 467.727356,135.245972 461.597015,133.765747 
	C458.768585,133.082809 455.570648,130.468781 454.211304,127.859695 
	C451.053528,121.798836 449.083984,115.131783 446.286591,108.864998 
	C444.824646,105.589897 444.518921,102.768227 446.686462,99.760078 
	C450.458710,94.524948 454.121613,89.211037 457.598328,84.260582 
	C453.616821,80.272171 449.575348,76.223663 445.606995,72.248405 
	C441.086945,75.658028 436.530823,79.335587 431.721069,82.644501 
	C428.070374,85.156059 424.382172,85.665367 420.012817,83.150314 
	C414.909515,80.212807 409.299377,78.028152 403.706268,76.107620 
	C398.772156,74.413345 396.482330,71.799644 395.929474,66.664658 
	C395.293823,60.761024 394.120728,54.915264 392.235046,49.002998 
z"/>
<path fill="#FFFFFF" opacity="1.000000" stroke="none" 
	d="
M339.990601,289.000000 
	C344.467346,289.000000 348.445618,289.000000 352.710327,289.000000 
	C352.710327,294.276917 352.710327,299.348816 352.710327,304.713318 
	C331.716461,304.713318 310.647980,304.713318 289.289154,304.713318 
	C289.289154,299.720428 289.289154,294.648682 289.289154,289.000000 
	C305.972565,289.000000 322.732361,289.000000 339.990601,289.000000 
z"/>
<path fill="#FFFFFF" opacity="1.000000" stroke="none" 
	d="
M291.198303,257.002045 
	C311.973511,257.000244 332.265594,257.000244 352.777832,257.000244 
	C352.777832,262.417908 352.777832,267.489471 352.777832,272.781494 
	C331.574188,272.781494 310.503357,272.781494 289.003571,272.781494 
	C289.003571,268.033569 288.940247,263.412842 289.079468,258.798248 
	C289.097961,258.184204 290.144653,257.601196 291.198303,257.002045 
z"/>
<path fill="#FFFFFF" opacity="1.000000" stroke="none" 
	d="
M257.052307,97.000000 
	C267.848572,97.000000 278.153076,97.000000 288.727844,97.000000 
	C288.727844,102.311913 288.727844,107.384193 288.727844,112.730682 
	C275.680542,112.730682 262.610443,112.730682 249.269272,112.730682 
	C249.269272,107.681122 249.269272,102.609283 249.269272,97.000000 
	C251.685684,97.000000 254.123123,97.000000 257.052307,97.000000 
z"/>
<path fill="#000000" opacity="1.000000" stroke="none" 
	d="
M216.000000,337.000000 
	C283.133514,337.000000 349.767029,337.000000 417.853790,337.000000 
	C416.897400,347.494110 416.892578,357.888672 414.775757,367.833771 
	C412.704041,377.567200 405.320984,383.045593 395.194641,383.961761 
	C389.137695,384.509766 383.045532,384.953888 376.968933,384.957306 
	C271.991608,385.016602 167.014236,385.042236 62.036964,384.955688 
	C45.789635,384.942291 36.636765,377.689331 34.272831,365.648865 
	C32.482887,356.531982 33.050537,346.952209 32.539307,337.000000 
	C93.994621,337.000000 154.747314,337.000000 216.000000,337.000000 
M385.000000,365.358063 
	C385.000000,361.272491 385.000000,357.186920 385.000000,353.340393 
	C379.243927,353.340393 374.167542,353.340393 369.343262,353.340393 
	C369.343262,358.761932 369.343262,363.837402 369.343262,368.999756 
	C373.845398,368.999756 378.016510,369.169037 382.155243,368.877747 
	C383.158295,368.807159 384.054443,367.217743 385.000000,365.358063 
z"/>
<path fill="#000000" opacity="1.000000" stroke="none" 
	d="
M129.282074,201.776978 
	C115.174294,192.682816 106.501694,180.609451 106.057007,163.748215 
	C105.756920,152.369751 105.999802,140.976959 105.999802,129.291718 
	C136.931976,129.291718 168.656387,129.291718 200.087921,129.291718 
	C200.087921,140.016449 200.387070,150.863678 199.959198,161.682144 
	C199.751511,166.933304 198.604034,172.251251 197.151062,177.329819 
	C192.723221,192.806488 172.780411,208.906174 154.662231,208.164566 
	C145.720184,207.798553 137.290878,206.706573 129.282074,201.776978 
M169.744400,145.057159 
	C169.399094,150.234207 169.053787,155.411255 168.694916,160.791870 
	C174.482483,160.791870 179.553864,160.791870 184.788879,160.791870 
	C184.788879,155.511261 184.788879,150.439850 184.788879,145.003952 
	C179.961685,145.003952 175.335938,145.003952 169.744400,145.057159 
M128.516495,145.000000 
	C126.083160,145.000000 123.649826,145.000000 121.284897,145.000000 
	C121.284897,150.640976 121.284897,155.713150 121.284897,160.712189 
	C126.646683,160.712189 131.718933,160.712189 136.709167,160.712189 
	C136.709167,155.347641 136.709167,150.275452 136.709167,145.000000 
	C134.107910,145.000000 131.795746,145.000000 128.516495,145.000000 
z"/>
<path fill="#000000" opacity="1.000000" stroke="none" 
	d="
M229.000000,401.000000 
	C242.830704,401.000000 256.162659,401.100128 269.491241,400.932678 
	C273.016113,400.888428 273.805298,402.128845 274.126221,405.526550 
	C275.043182,415.234375 276.609924,424.879150 277.802765,434.563293 
	C278.376251,439.219299 278.683197,443.908112 279.131561,448.808441 
	C242.873917,448.808441 207.124878,448.808441 170.785126,448.808441 
	C171.640884,441.157166 172.413986,433.745056 173.313599,426.348358 
	C174.138107,419.569183 175.483276,412.827484 175.851807,406.028778 
	C176.063156,402.130096 177.011093,400.860413 181.010529,400.913544 
	C196.837936,401.124023 212.669800,401.000000 229.000000,401.000000 
z"/>
<path fill="#000000" opacity="1.000000" stroke="none" 
	d="
M114.847740,272.999939 
	C121.405029,271.158173 127.522095,269.316406 133.862167,267.407532 
	C130.499420,282.733826 127.100983,298.198608 123.721169,313.667480 
	C123.411240,315.085938 123.580986,316.750336 122.877487,317.903778 
	C122.102371,319.174683 120.585114,320.856354 119.375435,320.869110 
	C101.437721,321.058197 83.497398,320.999573 65.084732,320.999573 
	C65.027649,307.890533 63.678967,294.830750 68.142937,282.448303 
	C71.948227,271.892883 79.247345,264.085693 90.056641,259.932068 
	C93.919472,258.447693 97.589989,256.462891 101.653236,254.563965 
	C102.511253,258.298035 103.231819,261.583038 104.023979,264.850647 
	C105.713898,271.821320 107.220879,272.987427 114.847740,272.999939 
z"/>
<path fill="#000000" opacity="1.000000" stroke="none" 
	d="
M232.947723,321.000000 
	C217.461884,321.000000 202.466919,320.915527 187.474487,321.072113 
	C184.521866,321.102966 183.528534,319.861237 182.976761,317.311127 
	C179.844040,302.832642 176.621017,288.373657 173.452194,273.902924 
	C172.982086,271.756165 172.636475,269.582153 172.307678,267.819702 
	C179.140228,269.531128 186.013733,271.524078 193.008224,272.903534 
	C197.237411,273.737640 200.089828,271.684570 201.068436,267.142670 
	C201.943420,263.081665 203.267380,259.117401 204.476883,254.812683 
	C213.233780,258.613098 222.434128,261.410583 229.126083,268.661102 
	C235.542038,275.612610 239.793289,283.515564 240.052017,293.311676 
	C240.290985,302.359650 240.964737,311.396118 241.476990,321.000000 
	C238.313400,321.000000 235.876450,321.000000 232.947723,321.000000 
z"/>
<path fill="#000000" opacity="1.000000" stroke="none" 
	d="
M192.000000,465.000000 
	C228.469650,465.000000 264.439423,464.962006 300.408691,465.078064 
	C303.052917,465.086578 306.078400,465.611816 308.217346,466.994293 
	C310.015137,468.156250 311.726044,470.915222 311.733246,472.973328 
	C311.740448,475.028198 310.030823,477.725098 308.254089,478.978882 
	C306.314484,480.347656 303.435181,480.916229 300.963623,480.921326 
	C250.339890,481.026001 199.715866,481.005951 149.091919,480.993073 
	C142.124527,480.991302 138.240768,478.331543 138.000381,473.527618 
	C137.732880,468.181458 141.499130,465.047363 148.536331,465.017914 
	C162.857315,464.958008 177.178757,465.000000 192.000000,465.000000 
z"/>
<path fill="#000000" opacity="1.000000" stroke="none" 
	d="
M208.335907,112.870438 
	C172.264145,112.989731 136.624268,113.004257 100.984398,112.991524 
	C94.400383,112.989174 90.403496,110.361214 90.001183,105.918320 
	C89.504189,100.429794 93.151283,97.115707 100.147346,97.027031 
	C108.972633,96.915161 117.800423,97.000008 126.627129,97.000000 
	C152.774170,97.000000 178.921219,96.986656 205.068222,97.009346 
	C211.635132,97.015045 215.524933,99.678894 216.022812,104.131653 
	C216.638565,109.638573 213.043839,111.447006 208.335907,112.870438 
z"/>
<path fill="#000000" opacity="1.000000" stroke="none" 
	d="
M145.000000,37.137501 
	C144.607620,34.044575 145.281754,32.711620 148.363235,32.931210 
	C152.333878,33.214157 156.339951,33.000099 160.665131,33.000099 
	C160.665131,48.852890 160.665131,64.592117 160.665131,80.666397 
	C155.814270,80.666397 150.739105,80.666397 145.000000,80.666397 
	C145.000000,66.459679 145.000000,52.041267 145.000000,37.137501 
z"/>
<path fill="#000000" opacity="1.000000" stroke="none" 
	d="
M158.998383,287.027222 
	C161.428665,298.441681 163.857391,309.415222 166.362671,320.734650 
	C157.357742,320.734650 148.804764,320.734650 139.673065,320.734650 
	C142.600189,307.409546 145.477768,294.309967 148.375015,281.120850 
	C151.463821,281.120850 154.423370,281.120850 157.528534,281.120850 
	C158.019058,282.946777 158.507935,284.766541 158.998383,287.027222 
z"/>
<path fill="#000000" opacity="1.000000" stroke="none" 
	d="
M187.995377,81.000000 
	C184.200912,81.000000 180.900223,81.000000 177.000000,81.000000 
	C177.000000,76.245728 177.000000,71.669579 177.000000,67.093437 
	C177.000000,62.613403 177.000000,58.133369 177.000000,53.637074 
	C188.019897,57.403664 198.476807,70.203743 198.876373,81.000000 
	C195.407333,81.000000 191.948242,81.000000 187.995377,81.000000 
z"/>
<path fill="#000000" opacity="1.000000" stroke="none" 
	d="
M129.000000,58.327198 
	C129.000000,66.054420 129.000000,73.319817 129.000000,80.789444 
	C121.557648,80.789444 114.484749,80.789444 107.419655,80.789444 
	C106.261978,72.682884 117.331802,57.726551 129.000000,53.440903 
	C129.000000,54.969200 129.000000,56.417290 129.000000,58.327198 
z"/>
<path fill="#000000" opacity="1.000000" stroke="none" 
	d="
M147.171844,225.000000 
	C154.544937,225.000000 161.437103,225.000000 168.884171,225.000000 
	C168.884171,225.176895 169.273315,226.929657 168.822861,227.181671 
	C165.079285,229.276016 161.362701,231.971039 157.291840,232.814896 
	C148.352036,234.668015 137.423752,229.706879 137.060455,223.928040 
	C140.331711,224.292160 143.511337,224.646088 147.171844,225.000000 
z"/>
<path fill="#000000" opacity="1.000000" stroke="none" 
	d="
M122.727081,252.704071 
	C120.858025,252.879044 118.363274,254.607590 118.297272,251.481186 
	C118.261627,249.792572 119.045235,247.133270 120.252861,246.547226 
	C124.168617,244.646942 128.095383,240.893524 133.006256,244.581100 
	C132.722641,251.141724 127.054527,250.749420 122.727081,252.704071 
z"/>
<path fill="#000000" opacity="1.000000" stroke="none" 
	d="
M178.976013,251.020844 
	C176.415939,249.314178 174.258057,247.627655 171.656891,245.594696 
	C176.588379,242.731689 186.144516,244.203827 187.598938,247.512863 
	C188.355759,249.234741 187.394974,251.711578 187.192551,254.049606 
	C184.126877,252.869293 181.752533,251.955139 178.976013,251.020844 
z"/>
<path fill="#000000" opacity="1.000000" stroke="none" 
	d="
M217.000000,153.930023 
	C217.000000,151.033768 217.000000,148.600510 217.000000,145.986374 
	C222.079300,146.337860 224.109650,148.872375 223.992950,153.316193 
	C223.880325,157.605835 221.675278,159.803375 217.000000,159.955521 
	C217.000000,157.995667 217.000000,156.194351 217.000000,153.930023 
z"/>
<path fill="#000000" opacity="1.000000" stroke="none" 
	d="
M88.844299,146.641205 
	C88.980492,151.210526 88.980492,155.360962 88.980492,159.818497 
	C84.466042,159.939560 82.324860,157.778931 82.015381,153.637939 
	C81.650169,148.751068 83.432785,146.829559 88.844299,146.641205 
z"/>
<path fill="#000000" opacity="1.000000" stroke="none" 
	d="
M153.824326,249.000946 
	C159.338257,252.737045 159.203186,254.505615 152.477295,260.809021 
	C150.979950,258.184448 148.750061,255.847107 148.517258,253.325394 
	C148.357239,251.591980 149.660553,248.043762 153.824326,249.000946 
z"/>
<path fill="#000000" opacity="1.000000" stroke="none" 
	d="
M392.708069,49.023682 
	C394.120728,54.915264 395.293823,60.761024 395.929474,66.664658 
	C396.482330,71.799644 398.772156,74.413345 403.706268,76.107620 
	C409.299377,78.028152 414.909515,80.212807 420.012817,83.150314 
	C424.382172,85.665367 428.070374,85.156059 431.721069,82.644501 
	C436.530823,79.335587 441.086945,75.658028 445.606995,72.248405 
	C449.575348,76.223663 453.616821,80.272171 457.598328,84.260582 
	C454.121613,89.211037 450.458710,94.524948 446.686462,99.760078 
	C444.518921,102.768227 444.824646,105.589897 446.286591,108.864998 
	C449.083984,115.131783 451.053528,121.798836 454.211304,127.859695 
	C455.570648,130.468781 458.768585,133.082809 461.597015,133.765747 
	C467.727356,135.245972 474.157776,135.483505 480.735352,136.261108 
	C480.735352,141.935867 480.735352,147.691437 480.735352,153.693741 
	C474.524811,154.458603 468.254822,155.169479 462.004425,156.023605 
	C458.266022,156.534470 455.471344,158.601181 454.050293,162.094208 
	C451.580750,168.164551 449.934265,174.665192 446.763519,180.324783 
	C444.197723,184.904510 445.109497,188.403381 447.563568,191.985855 
	C450.851257,196.785095 454.515930,201.326080 457.966156,205.908127 
	C453.942139,209.920395 449.974640,213.876328 446.043610,217.795883 
	C440.902374,214.201645 435.575287,210.571655 430.355560,206.793350 
	C427.179932,204.494659 424.316925,204.846771 420.853455,206.467880 
	C414.786774,209.307434 408.223328,211.128723 402.294128,214.199387 
	C399.664703,215.561111 396.926056,218.648071 396.245819,221.441132 
	C394.750885,227.579620 394.534973,234.029602 393.758270,240.683914 
	C388.050262,240.683914 382.166321,240.683914 376.276398,240.683914 
	C375.504669,234.250305 375.246643,227.835571 373.774597,221.712723 
	C373.088165,218.857635 370.564514,215.599472 367.971527,214.221283 
	C362.363342,211.240509 355.897705,209.868301 350.303406,206.867584 
	C345.314667,204.191681 341.472565,205.006317 337.384583,208.102509 
	C332.997711,211.425064 328.523315,214.632080 324.381866,217.673065 
	C320.433929,213.752243 316.457214,209.802841 312.380310,205.753952 
	C315.815765,200.884659 319.623749,195.493561 323.424744,190.097504 
	C325.535675,187.100708 325.120972,184.258575 323.629425,180.975830 
	C320.792267,174.731705 318.898193,168.032684 315.756744,161.965683 
	C314.429138,159.401688 311.189636,156.890884 308.376678,156.224823 
	C302.239716,154.771759 295.819153,154.516357 289.256012,153.741074 
	C289.256012,148.040405 289.256012,142.285538 289.256012,136.300766 
	C295.497498,135.535400 301.885834,135.273880 307.972290,133.781372 
	C310.932434,133.055496 314.337494,130.575211 315.770416,127.929939 
	C318.792328,122.351318 320.147125,115.874176 323.131866,110.269470 
	C325.783600,105.290138 324.969238,101.442642 321.876251,97.361191 
	C318.553711,92.976746 315.348419,88.503464 312.300415,84.352837 
	C316.228363,80.381599 320.169373,76.397163 324.291473,72.229614 
	C328.497620,75.364937 333.088867,78.931313 337.834412,82.278976 
	C341.597839,84.933815 345.226624,85.803795 349.917236,83.191078 
	C355.455383,80.106262 361.708130,78.291924 367.680389,76.003410 
	C371.312836,74.611511 373.384369,71.883766 373.942230,68.234627 
	C374.898590,61.979141 375.516937,55.671986 376.323608,49.002998 
	C381.642883,49.002998 386.938965,49.002998 392.708069,49.023682 
M359.419830,103.961327 
	C357.310974,105.439590 355.041656,106.735413 353.119415,108.425865 
	C341.024139,119.062531 336.010010,132.425369 336.891113,148.525284 
	C337.717072,163.618179 344.634918,174.938629 356.178314,184.038132 
	C365.797516,191.620819 376.810822,193.513763 388.707367,193.070770 
	C403.684448,192.513062 414.941437,185.342438 423.948914,174.086655 
	C431.646393,164.467896 433.324646,153.180313 433.129639,141.107712 
	C432.841888,123.291672 418.315186,105.696777 403.086243,99.845482 
	C395.273438,96.843628 387.298737,96.201591 379.459839,97.260536 
	C372.816650,98.157951 366.479553,101.321655 359.419830,103.961327 
z"/>
<path fill="#FFFFFF" opacity="1.000000" stroke="none" 
	d="
M384.999878,365.842407 
	C384.054443,367.217743 383.158295,368.807159 382.155243,368.877747 
	C378.016510,369.169037 373.845398,368.999756 369.343262,368.999756 
	C369.343262,363.837402 369.343262,358.761932 369.343262,353.340393 
	C374.167542,353.340393 379.243927,353.340393 385.000000,353.340393 
	C385.000000,357.186920 385.000000,361.272491 384.999878,365.842407 
z"/>
<path fill="#FFFFFF" opacity="1.000000" stroke="none" 
	d="
M170.227295,145.030548 
	C175.335938,145.003952 179.961685,145.003952 184.788879,145.003952 
	C184.788879,150.439850 184.788879,155.511261 184.788879,160.791870 
	C179.553864,160.791870 174.482483,160.791870 168.694916,160.791870 
	C169.053787,155.411255 169.399094,150.234207 170.227295,145.030548 
z"/>
<path fill="#FFFFFF" opacity="1.000000" stroke="none" 
	d="
M129.000031,145.000000 
	C131.795746,145.000000 134.107910,145.000000 136.709167,145.000000 
	C136.709167,150.275452 136.709167,155.347641 136.709167,160.712189 
	C131.718933,160.712189 126.646683,160.712189 121.284897,160.712189 
	C121.284897,155.713150 121.284897,150.640976 121.284897,145.000000 
	C123.649826,145.000000 126.083160,145.000000 129.000031,145.000000 
z"/>
<path fill="#FFFFFF" opacity="1.000000" stroke="none" 
	d="
M359.713440,103.721909 
	C366.479553,101.321655 372.816650,98.157951 379.459839,97.260536 
	C387.298737,96.201591 395.273438,96.843628 403.086243,99.845482 
	C418.315186,105.696777 432.841888,123.291672 433.129639,141.107712 
	C433.324646,153.180313 431.646393,164.467896 423.948914,174.086655 
	C414.941437,185.342438 403.684448,192.513062 388.707367,193.070770 
	C376.810822,193.513763 365.797516,191.620819 356.178314,184.038132 
	C344.634918,174.938629 337.717072,163.618179 336.891113,148.525284 
	C336.010010,132.425369 341.024139,119.062531 353.119415,108.425865 
	C355.041656,106.735413 357.310974,105.439590 359.713440,103.721909 
M355.018341,155.026855 
	C355.708130,156.474487 356.383118,157.929398 357.090027,159.368622 
	C364.644775,174.749756 383.884796,180.399109 398.670868,173.023743 
	C410.788055,166.979630 416.369934,157.120132 416.039764,143.578293 
	C415.483978,120.781929 392.027344,107.522224 372.088074,116.554901 
	C357.035431,123.373909 350.827637,138.053589 355.018341,155.026855 
z"/>
<path fill="#000000" opacity="1.000000" stroke="none" 
	d="
M355.009521,154.603088 
	C350.827637,138.053589 357.035431,123.373909 372.088074,116.554901 
	C392.027344,107.522224 415.483978,120.781929 416.039764,143.578293 
	C416.369934,157.120132 410.788055,166.979630 398.670868,173.023743 
	C383.884796,180.399109 364.644775,174.749756 357.090027,159.368622 
	C356.383118,157.929398 355.708130,156.474487 355.009521,154.603088 
z"/>
</svg>